{
    "asset" : {
        "generator" : "Khronos glTF Blender I/O v3.2.43",
        "version" : "2.0"
    },
    "scene" : 0,
    "scenes" : [
        {
            "name" : "Scene",
            "nodes" : [
                0,
                1
            ]
        }
    ],
    "nodes" : [
        {
            "mesh" : 0,
            "name" : "Sphere.001",
            "rotation" : [
                -0.007306576240807772,
                -0.010377355851233006,
                -0.9999192953109741,
                0.0006228808779269457
            ],
            "scale" : [
                0.017460554838180542,
                0.01650121808052063,
                0.017453189939260483
            ],
            "translation" : [
                -0.014287148602306843,
                0.007384237367659807,
                0.015430680476129055
            ]
        },
        {
            "mesh" : 1,
            "name" : "Sphere",
            "rotation" : [
                0.0027595520950853825,
                -0.004900512285530567,
                0.03912074491381645,
                0.9992187023162842
            ],
            "scale" : [
                0.018490754067897797,
                0.017474817112088203,
                0.018482960760593414
            ],
            "translation" : [
                -0.014784298837184906,
                0.023975292220711708,
                0.015743091702461243
            ]
        }
    ],
    "materials" : [
        {
            "doubleSided" : true,
            "name" : "Bun_new",
            "pbrMetallicRoughness" : {
                "baseColorTexture" : {
                    "index" : 0
                },
                "metallicFactor" : 0,
                "roughnessFactor" : 0.5
            }
        }
    ],
    "meshes" : [
        {
            "name" : "Sphere.002",
            "primitives" : [
                {
                    "attributes" : {
                        "POSITION" : 0,
                        "NORMAL" : 1
                    },
                    "indices" : 2,
                    "material" : 0
                }
            ]
        },
        {
            "name" : "Sphere",
            "primitives" : [
                {
                    "attributes" : {
                        "POSITION" : 3,
                        "NORMAL" : 4
                    },
                    "indices" : 2,
                    "material" : 0
                }
            ]
        }
    ],
    "textures" : [
        {
            "sampler" : 0,
            "source" : 0
        }
    ],
    "images" : [
        {
            "mimeType" : "image/jpeg",
            "name" : "bun",
            "uri" : "Texture/bun.jpg"
        }
    ],
    "accessors" : [
        {
            "bufferView" : 0,
            "componentType" : 5126,
            "count" : 257,
            "max" : [
                0.7417632341384888,
                0.018109992146492004,
                0.7277882695198059
            ],
            "min" : [
                -0.7444372773170471,
                -0.2551945447921753,
                -0.7266998291015625
            ],
            "type" : "VEC3"
        },
        {
            "bufferView" : 1,
            "componentType" : 5126,
            "count" : 257,
            "type" : "VEC3"
        },
        {
            "bufferView" : 2,
            "componentType" : 5123,
            "count" : 1530,
            "type" : "SCALAR"
        },
        {
            "bufferView" : 3,
            "componentType" : 5126,
            "count" : 257,
            "max" : [
                0.6866874694824219,
                0.1732499599456787,
                0.6882162094116211
            ],
            "min" : [
                -0.6866872310638428,
                -0.24930162727832794,
                -0.686687171459198
            ],
            "type" : "VEC3"
        },
        {
            "bufferView" : 4,
            "componentType" : 5126,
            "count" : 257,
            "type" : "VEC3"
        }
    ],
    "bufferViews" : [
        {
            "buffer" : 0,
            "byteLength" : 3084,
            "byteOffset" : 0
        },
        {
            "buffer" : 0,
            "byteLength" : 3084,
            "byteOffset" : 3084
        },
        {
            "buffer" : 0,
            "byteLength" : 3060,
            "byteOffset" : 6168
        },
        {
            "buffer" : 0,
            "byteLength" : 3084,
            "byteOffset" : 9228
        },
        {
            "buffer" : 0,
            "byteLength" : 3084,
            "byteOffset" : 12312
        }
    ],
    "samplers" : [
        {
            "magFilter" : 9729,
            "minFilter" : 9987
        }
    ],
    "buffers" : [
        {
            "byteLength" : 15396,
            "uri" : "Burger.bin"
        }
    ]
}
