{
    "asset" : {
        "generator" : "Khronos glTF Blender I/O v3.2.43",
        "version" : "2.0"
    },
    "scene" : 0,
    "scenes" : [
        {
            "name" : "Scene",
            "nodes" : [
                0
            ]
        }
    ],
    "nodes" : [
        {
            "mesh" : 0,
            "name" : "13931_Reuben_Sandwich_on_Plate_v2_L1",
            "scale" : [
                0.024342508986592293,
                0.024342508986592293,
                0.024342508986592293
            ]
        }
    ],
    "materials" : [
        {
            "doubleSided" : true,
            "name" : "13931_Reuben_Sandwich_on_Plate_sandwich",
            "normalTexture" : {
                "index" : 0
            },
            "pbrMetallicRoughness" : {
                "baseColorTexture" : {
                    "index" : 1
                },
                "metallicFactor" : 0,
                "roughnessFactor" : 0.858578622341156
            }
        },
        {
            "doubleSided" : true,
            "name" : "13931_Reuben_Sandwich_on_Plate_plate",
            "pbrMetallicRoughness" : {
                "baseColorFactor" : [
                    0.7882000207901001,
                    0.7608000040054321,
                    0.6510000228881836,
                    1
                ],
                "metallicFactor" : 0,
                "roughnessFactor" : 0.7809109687805176
            }
        }
    ],
    "meshes" : [
        {
            "name" : "13931_Reuben_Sandwich_on_Plate_v2_L1",
            "primitives" : [
                {
                    "attributes" : {
                        "POSITION" : 0,
                        "NORMAL" : 1,
                        "TEXCOORD_0" : 2
                    },
                    "indices" : 3,
                    "material" : 0
                },
                {
                    "attributes" : {
                        "POSITION" : 4,
                        "NORMAL" : 5,
                        "TEXCOORD_0" : 6
                    },
                    "indices" : 7,
                    "material" : 1
                }
            ]
        }
    ],
    "textures" : [
        {
            "sampler" : 0,
            "source" : 0
        },
        {
            "sampler" : 0,
            "source" : 1
        }
    ],
    "images" : [
        {
            "bufferView" : 4,
            "mimeType" : "image/jpeg",
            "name" : "Map__2_Normal Bump"
        },
        {
            "bufferView" : 5,
            "mimeType" : "image/jpeg",
            "name" : "13931_Reuben_Sandwich_on_Plate_sandwich_diff"
        }
    ],
    "accessors" : [
        {
            "bufferView" : 0,
            "componentType" : 5126,
            "count" : 9980,
            "max" : [
                5.260900020599365,
                4.8165998458862305,
                3.4746999740600586
            ],
            "min" : [
                -4.535299777984619,
                0.8963000178337097,
                -5.064300060272217
            ],
            "type" : "VEC3"
        },
        {
            "bufferView" : 1,
            "componentType" : 5126,
            "count" : 9980,
            "type" : "VEC3"
        },
        {
            "bufferView" : 2,
            "componentType" : 5126,
            "count" : 9980,
            "type" : "VEC2"
        },
        {
            "bufferView" : 3,
            "componentType" : 5123,
            "count" : 57744,
            "type" : "SCALAR"
        },
        {
            "bufferView" : 6,
            "componentType" : 5126,
            "count" : 4418,
            "max" : [
                9.627400398254395,
                1.6002999544143677,
                9.627400398254395
            ],
            "min" : [
                -9.627400398254395,
                0.004100000020116568,
                -9.627400398254395
            ],
            "type" : "VEC3"
        },
        {
            "bufferView" : 7,
            "componentType" : 5126,
            "count" : 4418,
            "type" : "VEC3"
        },
        {
            "bufferView" : 8,
            "componentType" : 5126,
            "count" : 4418,
            "type" : "VEC2"
        },
        {
            "bufferView" : 9,
            "componentType" : 5123,
            "count" : 25920,
            "type" : "SCALAR"
        }
    ],
    "bufferViews" : [
        {
            "buffer" : 0,
            "byteLength" : 119760,
            "byteOffset" : 0
        },
        {
            "buffer" : 0,
            "byteLength" : 119760,
            "byteOffset" : 119760
        },
        {
            "buffer" : 0,
            "byteLength" : 79840,
            "byteOffset" : 239520
        },
        {
            "buffer" : 0,
            "byteLength" : 115488,
            "byteOffset" : 319360
        },
        {
            "buffer" : 0,
            "byteLength" : 450687,
            "byteOffset" : 434848
        },
        {
            "buffer" : 0,
            "byteLength" : 680832,
            "byteOffset" : 885536
        },
        {
            "buffer" : 0,
            "byteLength" : 53016,
            "byteOffset" : 1566368
        },
        {
            "buffer" : 0,
            "byteLength" : 53016,
            "byteOffset" : 1619384
        },
        {
            "buffer" : 0,
            "byteLength" : 35344,
            "byteOffset" : 1672400
        },
        {
            "buffer" : 0,
            "byteLength" : 51840,
            "byteOffset" : 1707744
        }
    ],
    "samplers" : [
        {
            "magFilter" : 9729,
            "minFilter" : 9987
        }
    ],
    "buffers" : [
        {
            "byteLength" : 1759584,
            "uri" : "data:application/octet-stream;base64,"
        }
    ]
}
